<svg width="24" height="24" xmlns="http://www.w3.org/2000/svg" fill="#000000">

 <g>
  <title>Layer 1</title>
  <path id="svg_1" fill="none" d="m0,0l24,0l0,24l-24,0l0,-24z"/>
  <path id="svg_2" d="m16,5l0,8c0,1.1 -0.9,2 -2,2l-6,0c-1.1,0 -2,-0.9 -2,-2l0,-8l10,0m4,-2l-16,0l0,10c0,2.21 1.79,4 4,4l6,0c2.21,0 4,-1.79 4,-4l0,-3l2,0c1.11,0 2,-0.89 2,-2l0,-3c0,-1.11 -0.89,-2 -2,-2zm-2,5l0,-3l2,0l0,3l-2,0zm2,11l-18,0l0,2l18,0l0,-2z"/>
  <line stroke-width="0.4" stroke-linecap="undefined" stroke-linejoin="undefined" id="svg_3" y2="3.1875" x2="22.375" y1="0.5625" x1="22.375" stroke="#000" fill="none"/>
  <line transform="rotate(90, 22.375, 1.875)" stroke-width="0.4" stroke-linecap="undefined" stroke-linejoin="undefined" id="svg_4" y2="3.1875" x2="22.375" y1="0.5625" x1="22.375" stroke="#000" fill="none"/>
 </g>
</svg>